<svg xmlns="http://www.w3.org/2000/svg" version="1.1" viewBox="-5.0 -10.0 110.0 135.0">
 <path d="m85.207 35.582c-0.91797-4.832-5.125-8.5-10.207-8.5h-24.707c-2.082 0-4.043-1.043-5.207-2.793l-3.375-5.082c-1.918-2.918-5.168-4.625-8.668-4.625h-16.375c-5.75 0-10.418 4.668-10.418 10.418v50c0 5.75 4.668 10.418 10.418 10.418h66.668c5.75 0 10.418-4.668 10.418-10.418v-29.168c0-5.082-3.668-9.332-8.543-10.207zm-74.789 39.418v-50c0-3.457 2.793-6.25 6.25-6.25h16.375c2.082 0 4.043 1.043 5.207 2.793l3.375 5.082c1.918 2.918 5.168 4.625 8.668 4.625h24.707c2.707 0 5 1.75 5.875 4.168h-39.918c-2.793 0-5.418 1.082-7.375 3.043l-7.625 7.625c-1.957 1.957-3.043 4.582-3.043 7.375v21.543c0 1.668-0.66797 3.25-1.832 4.418-1.168 1.168-2.75 1.832-4.418 1.832-3.457 0-6.25-2.793-6.25-6.25zm79.164 0c0 3.457-2.793 6.25-6.25 6.25h-58.332c1.332-1.793 2.082-3.957 2.082-6.25v-21.543c0-1.668 0.66797-3.25 1.832-4.418l7.625-7.625c1.168-1.168 2.75-1.832 4.418-1.832h42.375c3.457 0 6.25 2.793 6.25 6.25z"/>
</svg>
