<svg xmlns="http://www.w3.org/2000/svg" version="1.1" viewBox="-5.0 -10.0 110.0 135.0">
 <path d="m76.727 7.8125h-53.453c-8.5234 0-15.461 6.9336-15.461 15.461v53.453c0 8.5234 6.9336 15.461 15.461 15.461h40.789c0.8125 0 1.6133-0.31641 2.2109-0.91406l25-25c0.59766-0.59766 0.88672-1.3984 0.88672-2.2109h0.03125l-0.003906-40.789c0-8.5234-6.9336-15.461-15.461-15.461zm-15.789 66.25v11.875h-37.664c-5.0781 0-9.2109-4.1328-9.2109-9.2109v-53.453c0-5.0781 4.1328-9.2109 9.2109-9.2109h53.453c5.0781 0 9.2109 4.1328 9.2109 9.2109v37.664h-11.875c-7.2383 0-13.125 5.8906-13.125 13.125zm6.25 7.457v-7.4531c0-3.793 3.0859-6.875 6.875-6.875h7.4531l-14.328 14.332z"/>
</svg>
