<svg xmlns="http://www.w3.org/2000/svg" viewBox="0 0 64 80" x="0px" y="0px"><g data-name="Layer 101"><path d="M47.41,12.48H42.9a5.21,5.21,0,0,0-4.71-4.17,6.26,6.26,0,0,0-12.38,0,5.21,5.21,0,0,0-4.71,4.17H16.59A4.64,4.64,0,0,0,12,17.12V56.36A4.64,4.64,0,0,0,16.59,61H47.41a4.64,4.64,0,0,0,4.64-4.64V17.12A4.64,4.64,0,0,0,47.41,12.48ZM32,5a4.27,4.27,0,0,1,4.14,3.27H27.86A4.27,4.27,0,0,1,32,5Zm-5.78,5.27H37.78a3.22,3.22,0,1,1,0,6.43H26.22a3.22,3.22,0,1,1,0-6.43ZM50.05,56.36A2.64,2.64,0,0,1,47.41,59H16.59A2.64,2.64,0,0,1,14,56.36V17.12a2.65,2.65,0,0,1,2.64-2.64H21.1a5.23,5.23,0,0,0,5.12,4.22H37.78a5.23,5.23,0,0,0,5.12-4.22h4.51a2.65,2.65,0,0,1,2.64,2.64Z"/></g></svg>
