<svg xmlns="http://www.w3.org/2000/svg" viewBox="0 0 20 20" x="0px" y="0px"><g><path d="M7.56693,4.55957a.49982.49982,0,0,1,0,.707L5.7974,7.03613a.49844.49844,0,0,1-.35352.14649l-.02881-.001a.49972.49972,0,0,1-.36328-.18848L4.27884,6.0166A.50017.50017,0,1,1,5.063,5.39551l.42432.53662L6.8599,4.55957A.49982.49982,0,0,1,7.56693,4.55957ZM9.18656,6.65381h6.14258a.5.5,0,1,0,0-1H9.18656a.5.5,0,0,0,0,1Zm6.14258,2.99853H9.18656a.5.5,0,0,0,0,1h6.14258a.5.5,0,0,0,0-1Zm-7.95069.06348v.87256a1.0013,1.0013,0,0,1-1,1H5.50589a1.0013,1.0013,0,0,1-1-1V9.71582a1.0013,1.0013,0,0,1,1-1h.87256A1.0013,1.0013,0,0,1,7.37845,9.71582Zm-1.87256,0v-.5l-.00048.5Zm.87256,0H5.50638l-.00049.87256h.87256Zm8.95069,3.93506H9.18656a.5.5,0,0,0,0,1h6.14258a.5.5,0,1,0,0-1Zm-7.95069.06348v.87255a1.0013,1.0013,0,0,1-1,1H5.50589a1.0013,1.0013,0,0,1-1-1v-.87255a1.0013,1.0013,0,0,1,1-1h.87256A1.0013,1.0013,0,0,1,7.37845,13.71436Zm-1.87256,0v-.5l-.00048.5Zm.87256,0H5.50638l-.00049.87255h.87256Z"/></g></svg>
